<svg
    class="stroke-current"
    xmlns="http://www.w3.org/2000/svg"
    viewBox="0 0 81.416 28.318"
>
    <g id="somes_logo" transform="translate(-384.929 -308.973)">
        <path
            id="Pfad_2"
            data-name="Pfad 2"
            d="M422.49,329.818a38.077,38.077,0,0,1-10.008,4.39c-3.626,1-8.4,2.317-14.1.755-2.281-.633-6.685-1.831-9.434-6.082a10.571,10.571,0,0,1-1.979-6.846,10.117,10.117,0,0,1,3.49-6.5,12.188,12.188,0,0,1,5.212-2.594,20.635,20.635,0,0,1,7.077-.807,25.083,25.083,0,0,1,7.719,1.779,36.3,36.3,0,0,1,6.1,2.915,46.626,46.626,0,0,1,4.328,2.915c1.337.98,1.375,1.1,3.928,3.08,2.447,1.9,2.447,1.839,3.8,2.924.166.13.317.252.461.373"
            transform="translate(0 -0.3)"
            fill="none"
            stroke-linecap="round"
            stroke-miterlimit="10"
            stroke-width="4"
        />
        <path
            id="Pfad_3"
            data-name="Pfad 3"
            d="M439.9,316.745a38.078,38.078,0,0,1,10.008-4.39c3.626-1,8.4-2.317,14.1-.755,2.281.633,6.685,1.831,9.434,6.082a10.571,10.571,0,0,1,1.979,6.846,10.117,10.117,0,0,1-3.49,6.5,12.187,12.187,0,0,1-5.212,2.594,20.633,20.633,0,0,1-7.077.807,25.084,25.084,0,0,1-7.719-1.779,36.3,36.3,0,0,1-6.1-2.915,46.619,46.619,0,0,1-4.328-2.915c-1.337-.98-1.375-1.1-3.928-3.08-2.447-1.9-2.447-1.839-3.8-2.924-.166-.13-.317-.252-.461-.373"
            transform="translate(-11.112 0)"
            fill="none"
            stroke-linecap="round"
            stroke-miterlimit="10"
            stroke-width="4"
        />
    </g>
</svg>