<svg width="100%" height="100%" viewBox="0 0 21 9" fill="none" xmlns="http://www.w3.org/2000/svg">
<path d="M9.48086 6.37417C8.71748 6.95859 7.88946 7.4047 7.02238 7.69873C6.13164 8.00045 4.9589 8.39782 3.55868 7.92653C2.99835 7.73554 1.9165 7.37408 1.2412 6.09146C0.88939 5.49279 0.717572 4.76275 0.755056 4.02587C0.829659 3.2629 1.13581 2.56256 1.61239 2.06467C1.98142 1.68058 2.42073 1.41203 2.89272 1.28201C3.45634 1.07769 4.04459 0.995294 4.6312 1.03852C5.28242 1.09295 5.92246 1.27413 6.52739 1.57528C7.04807 1.81056 7.54973 2.10501 8.02586 2.4548C8.39334 2.72337 8.7483 3.017 9.08904 3.33432C9.41748 3.63001 9.42682 3.66621 10.054 4.26362C10.6551 4.83689 10.6551 4.81849 10.9874 5.14586C11.0282 5.18508 11.0653 5.22189 11.1007 5.2584" stroke="currentColor" stroke-width="1.5" stroke-miterlimit="10" stroke-linecap="round"/>
<path d="M11.028 2.51981C11.7914 1.93539 12.6194 1.48929 13.4865 1.19525C14.3772 0.893532 15.55 0.496163 16.9502 0.967452C17.5105 1.15844 18.5924 1.51991 19.2677 2.80253C19.6195 3.40119 19.7913 4.13123 19.7538 4.86812C19.6792 5.63109 19.3731 6.33143 18.8965 6.82931C18.5275 7.21341 18.0882 7.48196 17.6162 7.61198C17.0526 7.81631 16.4643 7.89869 15.8777 7.85546C15.2265 7.80102 14.5864 7.61984 13.9815 7.3187C13.4608 7.08342 12.9592 6.78897 12.483 6.43918C12.1155 6.17061 11.7606 5.87699 11.4198 5.55966C11.0914 5.26397 11.0821 5.22776 10.4549 4.63035C9.85381 4.05708 9.85382 4.07549 9.52145 3.74812C9.48067 3.7089 9.44358 3.67208 9.4082 3.63558" stroke="currentColor" stroke-width="1.5" stroke-miterlimit="10" stroke-linecap="round"/>
</svg>
