<?xml version="1.0" encoding="UTF-8" standalone="no"?><!DOCTYPE svg PUBLIC "-//W3C//DTD SVG 1.1//EN" "http://www.w3.org/Graphics/SVG/1.1/DTD/svg11.dtd"><svg width="100%" height="100%" fill="currentColor" viewBox="0 0 450 326" version="1.1" xmlns="http://www.w3.org/2000/svg" xmlns:xlink="http://www.w3.org/1999/xlink" xml:space="preserve" xmlns:serif="http://www.serif.com/" style="fill-rule:evenodd;clip-rule:evenodd;stroke-linejoin:round;stroke-miterlimit:2;"><path fill="currentColor" d="M391.956,299.785l-27.589,0l0,-155.21l27.589,0l0,155.21Zm-68.939,0l-27.589,0l0,-155.21l27.589,0l0,155.21Zm-169.16,0l-27.597,0l0,-155.21l27.597,0l0,155.21Zm-68.956,0l-27.589,0l0,-155.21l27.589,0l0,155.21Zm364.465,-219.094l0.328,-0.821l0,-20.195l-7.492,0.041l-7.484,5.186l0,5.359l-196.363,-47.669l0,-13.22l-13.532,-9.371l-13.532,9.371l0,13.22l-196.323,47.661l0,-5.35l-7.484,-5.186l-7.484,-0.041l0,20.195l0.287,0.821l15.83,22.805l-0.304,198.932l-15.813,8.518l0,15.017l209.633,0c-1.535,-8.731 -9.757,-59.494 -6.031,-123.461c0,0 -4.579,-4.702 -4.645,-10.126c-2.979,0.451 -2.011,0.501 -5.194,1.633c-2.642,0.935 -5.654,2.298 -7.82,3.184c-2.995,1.214 -7.73,0.254 -9.092,-1.592c-0.656,-0.878 -1.009,-1.518 -1.157,-2.019c-1.173,-2.15 -1.92,-5.752 -1.92,-11.103c0,-3.373 0.656,-6.983 1.51,-10.266c-2.33,-1.863 -4.316,-4.743 -5.211,-8.912c-1.715,-7.935 -1.912,-15.813 -1.912,-15.813c0,0 5.219,7.459 8.477,14.517c0.607,-0.755 1.526,-1.239 2.568,-1.239c1.034,0 1.945,0.476 2.56,1.223c3.25,-7.049 8.452,-14.5 8.452,-14.5c0,0 -0.049,7.558 -1.756,15.485c-0.903,4.177 -3.036,7.385 -5.367,9.248c0.853,3.274 1.518,6.885 1.518,10.258c0,1.715 -0.082,3.233 -0.222,4.604c0,0 4.768,0.386 8.92,-2.667c4.464,-2.839 5.605,-4.333 5.605,-4.333c0,0 1.411,-5.572 2.93,-10.044c2.527,-7.443 3.66,-14.943 8.945,-19.686c2.667,-2.404 6.368,-2.815 9.962,-2.815c4.308,-1.231 3.964,-8.108 3.479,-11.644c-2.454,-1.822 -3.75,-5.441 -4.136,-9.806c-0.082,-0.919 -0.074,-1.781 0.008,-2.585l-0.008,0l-3.266,-5.638l2.478,-6.401l3.036,-3.422c0,0 1.141,-4.046 0.353,-8.058c-1.132,-5.728 -6.286,-11.406 -6.286,-11.406l14.615,-2.552c0,0 8.846,6.425 10.783,18.062c1.494,8.961 -2.035,20.523 -1.732,22.28c0.673,3.479 5.301,6.934 5.145,10.003c-0.164,3.233 -2.15,4.062 -2.15,4.062c0,0 3.315,-0.673 5.482,-0.755c5.531,-0.222 9.248,0.033 12.613,-0.763l4.62,-30.658c-1.132,-1.699 -2.363,-6.524 -1.354,-11.333c0.673,-3.2 2.519,-3.52 3.619,-3.709l4.53,-30.034l-1.247,-7.008l5.999,-16.068l0.894,0.131l0.911,17.175l-3.028,5.933l-5.227,34.654c1.247,3.291 2.733,7.73 2.848,10.988c0.23,6.614 1.387,23.002 0.107,28.492c-1.28,5.49 -2.035,8.477 -2.954,11.406c-0.451,1.461 -3.668,3.143 -6.786,4.464c-2.503,10.02 -10.307,44.305 -11.595,87.887c-1.182,39.824 4.029,77.17 5.162,84.728l192.014,0l0,-15.017l-16.141,-8.518l0,-198.932l15.83,-22.805Z"/></svg>