<svg width="100%" height="100%" viewBox="0 0 18 18" fill="none" xmlns="http://www.w3.org/2000/svg">
<path d="M17.4604 16.7543H14.6181V8.52984C14.6181 8.18591 14.3767 7.90723 14.0787 7.90723H11.2335V4.63725C11.2335 4.29331 10.9921 4.01463 10.6941 4.01463H7.30927C7.01128 4.01463 6.76983 4.29331 6.76983 4.63725V9.12589H3.92399C3.62601 9.12589 3.38456 9.40458 3.38456 9.74851V16.7543H1.07887V0.622616C1.07887 0.278683 0.837346 0 0.539435 0C0.241451 0 0 0.278683 0 0.622616V17.3768C0 17.7207 0.241451 17.9994 0.539435 17.9994H3.91421C3.91752 17.9995 3.92068 18 3.92399 18H7.30884C7.30898 18 7.30898 18 7.30912 18C7.30927 18 7.30927 18 7.30941 18H10.6943H14.0788C14.0821 18 14.0853 17.9995 14.0886 17.9994H17.4606C17.7585 17.9994 18 17.7207 18 17.3768C17.9999 17.033 17.7583 16.7543 17.4604 16.7543ZM13.5392 9.15237V16.7542H11.2335V9.15237H13.5392ZM10.1547 5.25986V8.52984V16.7543H7.84877V5.25986H10.1547ZM4.46343 10.3711H6.7694V16.7543H4.46343V10.3711Z" fill="currentColor"/>
</svg>
