<?xml version="1.0" encoding="utf-8"?>
<!-- Generator: Adobe Illustrator 27.1.1, SVG Export Plug-In . SVG Version: 6.00 Build 0)  -->
<svg transform="scale(0.5)" version="1.1" id="Ebene_1" xmlns="http://www.w3.org/2000/svg" xmlns:xlink="http://www.w3.org/1999/xlink" x="0px" y="0px" viewBox="333 123 841.89 595.28" style="enable-background:new 0 0 841.89 595.28;" xml:space="preserve">
  <style type="text/css">
    .st0 {
      fill: #333333;
      stroke: #333333;
      stroke-width: 4;
      stroke-linecap: round;
      stroke-linejoin: round;
      stroke-miterlimit: 10;
    }

    .st1 {
      fill: none;
      stroke: #333333;
      stroke-width: 5;
      stroke-linecap: round;
      stroke-miterlimit: 10;
    }

    .st2 {
      fill: none;
      stroke: #333333;
      stroke-width: 6;
      stroke-linecap: round;
      stroke-miterlimit: 10;
    }
  </style>
  <polygon class="st0" points="486.9,224.34 482.11,230.69 393.98,230.69 389.19,224.34 " />
  <path class="st1" d="M434.01,332.52c-2.94,1.6-7.43,3.66-13.25,5.06c-4.8,1.15-11.12,2.67-18.67,0.87
	c-3.02-0.73-8.85-2.11-12.49-7.01c-0.9-1.19-3.03-4.07-2.62-7.89c0.46-4.21,3.69-6.76,4.62-7.49c2.21-1.75,4.39-2.32,6.9-2.99
	c0.85-0.24,4.46-1.15,9.37-0.93c4.42,0.21,7.64,1.23,10.22,2.05c3.83,1.21,6.63,2.63,8.07,3.36c2.5,1.28,4.45,2.53,5.73,3.36
	c1.77,1.13,1.82,1.27,5.2,3.55c3.24,2.19,3.24,2.12,5.03,3.37c0.22,0.15,0.42,0.29,0.61,0.43" />
  <path class="st1" d="M442.03,317.64c2.94-1.6,7.43-3.66,13.25-5.06c4.8-1.15,11.12-2.67,18.67-0.87c3.02,0.73,8.85,2.11,12.49,7.01
	c0.9,1.19,3.03,4.07,2.62,7.89c-0.46,4.21-3.69,6.76-4.62,7.49c-2.21,1.75-4.39,2.32-6.9,2.99c-0.85,0.24-4.46,1.15-9.37,0.93
	c-4.42-0.21-7.64-1.23-10.22-2.05c-3.83-1.21-6.63-2.63-8.07-3.36c-2.5-1.28-4.45-2.53-5.73-3.36c-1.77-1.13-1.82-1.27-5.2-3.55
	c-3.24-2.19-3.24-2.12-5.03-3.37c-0.22-0.15-0.42-0.29-0.61-0.43" />
  <path class="st2" d="M407.52,237.82c0.93,5,1.83,11.69,1.91,19.62c0.03,2.57,0,8.51-0.82,14.71c-0.9,6.84-3.41,19.09-11.72,33.79" />
  <path class="st2" d="M469.2,237.82c-0.93,5-1.83,11.69-1.91,19.62c-0.03,2.57,0,8.51,0.82,14.71c0.9,6.84,3.41,19.09,11.72,33.79" />
  <line class="st2" x1="438.36" y1="238.79" x2="438.36" y2="302.79" />
</svg>