<?xml version="1.0" encoding="UTF-8"?>
<svg id="Ebene_1" data-name="Ebene 1" xmlns="http://www.w3.org/2000/svg" viewBox="0 0 107.18 119.44" class="fill-current stroke-current">
  <defs>
    <style>
      .cls-1 {
        stroke-linejoin: round;
        stroke-width: 4px;
      }

      .cls-1, .cls-2, .cls-3 {
        stroke-linecap: round;
      }

      .cls-2 {
        stroke-width: 6px;
      }

      .cls-2, .cls-3 {
        fill: none;
        stroke-miterlimit: 10;
      }

      .cls-3 {
        stroke-width: 5px;
      }
    </style>
  </defs>
  <polygon class="cls-1" points="102.47 2 97.68 8.35 9.55 8.35 4.76 2 102.47 2"/>
  <path class="cls-3" d="M49.58,110.18c-2.94,1.6-7.43,3.66-13.25,5.06-4.8,1.15-11.12,2.67-18.67,.87-3.02-.73-8.85-2.11-12.49-7.01-.9-1.19-3.03-4.07-2.62-7.89,.46-4.21,3.69-6.76,4.62-7.49,2.21-1.75,4.39-2.32,6.9-2.99,.85-.24,4.46-1.15,9.37-.93,4.42,.21,7.64,1.23,10.22,2.05,3.83,1.21,6.63,2.63,8.07,3.36,2.5,1.28,4.45,2.53,5.73,3.36,1.77,1.13,1.82,1.27,5.2,3.55,3.24,2.19,3.24,2.12,5.03,3.37,.22,.15,.42,.29,.61,.43"/>
  <path class="cls-3" d="M57.6,95.3c2.94-1.6,7.43-3.66,13.25-5.06,4.8-1.15,11.12-2.67,18.67-.87,3.02,.73,8.85,2.11,12.49,7.01,.9,1.19,3.03,4.07,2.62,7.89-.46,4.21-3.69,6.76-4.62,7.49-2.21,1.75-4.39,2.32-6.9,2.99-.85,.24-4.46,1.15-9.37,.93-4.42-.21-7.64-1.23-10.22-2.05-3.83-1.21-6.63-2.63-8.07-3.36-2.5-1.28-4.45-2.53-5.73-3.36-1.77-1.13-1.82-1.27-5.2-3.55-3.24-2.19-3.24-2.12-5.03-3.37-.22-.15-.42-.29-.61-.43"/>
  <path class="cls-2" d="M23.09,15.48c.93,5,1.83,11.69,1.91,19.62,.03,2.57,0,8.51-.82,14.71-.9,6.84-3.41,19.09-11.72,33.79"/>
  <path class="cls-2" d="M84.77,15.48c-.93,5-1.83,11.69-1.91,19.62-.03,2.57,0,8.51,.82,14.71,.9,6.84,3.41,19.09,11.72,33.79"/>
  <line class="cls-2" x1="53.93" y1="16.45" x2="53.93" y2="80.45"/>
</svg>