<svg xmlns="http://www.w3.org/2000/svg" width="2244.417" height="622.549" viewBox="0 0 2244.417 622.549">
  <g id="Gruppe_76" data-name="Gruppe 76" transform="translate(7925.417 -13505)">
    <g id="Logo" transform="translate(-7910.417 13566.545)">
      <path id="Pfad_1" data-name="Pfad 1" d="M853.355,224.34,830.6,254.505H411.945L389.19,224.34Z" transform="translate(-378.445 -224.34)" fill="#c4b4be" stroke="#c4b4be" stroke-linecap="round" stroke-linejoin="round" stroke-miterlimit="10" stroke-width="30"/>
      <path id="Pfad_2" data-name="Pfad 2" d="M610.587,409.082a258.4,258.4,0,0,1-62.943,24.037c-22.8,5.463-52.825,12.684-88.691,4.133-14.346-3.468-42.041-10.023-59.333-33.3-4.275-5.653-14.394-19.334-12.446-37.481,2.185-20,17.529-32.113,21.947-35.581,10.5-8.313,20.855-11.021,32.778-14.2,4.038-1.14,21.186-5.463,44.511-4.418,21,1,36.293,5.843,48.549,9.738A244.2,244.2,0,0,1,573.3,337.968a299.127,299.127,0,0,1,27.22,15.961c8.408,5.368,8.646,6.033,24.7,16.864,15.391,10.4,15.391,10.071,23.895,16.009,1.045.713,2,1.378,2.9,2.043" transform="translate(-386.928 104.821)" fill="none" stroke="#c4b4be" stroke-linecap="round" stroke-miterlimit="10" stroke-width="30"/>
      <path id="Pfad_3" data-name="Pfad 3" d="M474.733,342.993a258.439,258.439,0,0,1,62.944-24.038c22.8-5.463,52.825-12.683,88.691-4.133,14.346,3.468,42.041,10.023,59.332,33.3,4.276,5.653,14.395,19.334,12.446,37.482-2.185,20-17.529,32.113-21.947,35.581-10.5,8.313-20.854,11.021-32.778,14.2-4.038,1.14-21.187,5.463-44.512,4.418-21-1-36.293-5.843-48.55-9.738a244.3,244.3,0,0,1-38.336-15.961A299.016,299.016,0,0,1,484.8,398.146c-8.408-5.368-8.646-6.033-24.7-16.864-15.391-10.4-15.391-10.071-23.894-16.009-1.046-.713-2-1.378-2.9-2.042" transform="translate(-212.976 100.223)" fill="none" stroke="#c4b4be" stroke-linecap="round" stroke-miterlimit="10" stroke-width="30"/>
      <path id="Pfad_4" data-name="Pfad 4" d="M447.387,237.82a539.326,539.326,0,0,1,9.073,93.2,513.657,513.657,0,0,1-3.9,69.879c-4.275,32.493-16.2,90.685-55.675,160.517" transform="translate(-349.567 -173.784)" fill="none" stroke="#c4b4be" stroke-linecap="round" stroke-miterlimit="10" stroke-width="30"/>
      <path id="Pfad_5" data-name="Pfad 5" d="M476.39,237.82a539.283,539.283,0,0,0-9.074,93.2,513.542,513.542,0,0,0,3.9,69.879c4.276,32.493,16.2,90.685,55.675,160.517" transform="translate(-85.563 -173.784)" fill="none" stroke="#c4b4be" stroke-linecap="round" stroke-miterlimit="10" stroke-width="30"/>
      <line id="Linie_1" data-name="Linie 1" y2="304.028" transform="translate(244.324 68.644)" fill="none" stroke="#c4b4be" stroke-linecap="round" stroke-miterlimit="10" stroke-width="30"/>
    </g>
    <text id="somes_" data-name="somes

" transform="translate(-7313 13505)" fill="#c4b4be" font-size="500" font-family="ProximaSoft-Regular, Proxima Soft"><tspan x="0" y="460">somes</tspan></text>
  </g>
</svg>