<svg xmlns="http://www.w3.org/2000/svg" 
     viewBox="0 0 525 680" 
     style="width: 100%; height: auto; max-width: 100%; overflow: visible;" 
     preserveAspectRatio="xMidYMid meet">
  <style>
    .logo-stroke { 
      stroke: inherit; 
      fill: none; 
      stroke-linecap: round; 
      stroke-miterlimit: 10; 
    }
    .logo-fill {
      fill: inherit;
      stroke: inherit;
    }
  </style>

  <g id="Logo" transform="translate(25, 40)">
    
    <!-- 1. Top Horizontal Bar -->
    <path id="Pfad_1" class="logo-fill" d="M853.355 224.34 L830.6 254.505 H411.945 L389.19 224.34 Z" transform="translate(-378.445 -224.34)" stroke-width="20"/>
    
    <!-- 2. The Center Vertical Line -->
    <line id="Linie_1" class="logo-stroke" x1="0" y1="0" x2="0" y2="304.028" transform="translate(244.324 68.644)" stroke-width="30"></line>

    <!-- 3. The Two Vertical Arcs -->
    <path id="Pfad_4" class="logo-stroke" d="M447.387,237.82a539.326,539.326,0,0,1,9.073,93.2,513.657,513.657,0,0,1-3.9,69.879c-4.275,32.493-16.2,90.685-55.675,160.517" transform="translate(-349.567 -173.784)" stroke-width="30"></path>
    <path id="Pfad_5" class="logo-stroke" d="M476.39,237.82a539.283,539.283,0,0,0-9.074,93.2,513.542,513.542,0,0,0,3.9,69.879c4.276,32.493,16.2,90.685,55.675,160.517" transform="translate(-85.563 -173.784)" stroke-width="30"></path>

    <!-- 4. The Left and Right Curves -->
    <path id="Pfad_2" class="logo-stroke" d="M610.587,409.082a258.4,258.4,0,0,1-62.943,24.037c-22.8,5.463-52.825,12.684-88.691,4.133-14.346-3.468-42.041-10.023-59.333-33.3-4.275-5.653-14.394-19.334-12.446-37.481,2.185-20,17.529-32.113,21.947-35.581,10.5-8.313,20.855-11.021,32.778-14.2,4.038-1.14,21.186-5.463,44.511-4.418,21,1,36.293,5.843,48.549,9.738A244.2,244.2,0,0,1,573.3,337.968a299.127,299.127,0,0,1,27.22,15.961c8.408,5.368,8.646,6.033,24.7,16.864,15.391,10.4,15.391,10.071,23.895,16.009,1.045.713,2,1.378,2.9,2.043" transform="translate(-386.928 104.821)" stroke-width="30"></path>
    <path id="Pfad_3" class="logo-stroke" d="M474.733,342.993a258.439,258.439,0,0,1,62.944-24.038c22.8-5.463,52.825-12.683,88.691-4.133,14.346,3.468,42.041,10.023,59.332,33.3,4.276,5.653,14.395,19.334,12.446,37.482-2.185,20-17.529,32.113-21.947,35.581-10.5,8.313-20.854,11.021-32.778,14.2-4.038,1.14-21.187,5.463-44.512,4.418-21-1-36.293-5.843-48.55-9.738a244.3,244.3,0,0,1-38.336-15.961A299.016,299.016,0,0,1,484.8,398.146c-8.408-5.368-8.646-6.033-24.7-16.864-15.391-10.4-15.391-10.071-23.894-16.009-1.046-.713-2-1.378-2.9-2.042" transform="translate(-212.976 100.223)" stroke-width="30"></path>
  </g>
</svg>