<svg xmlns="http://www.w3.org/2000/svg" width="96.403" height="33.711" viewBox="0 0 96.403 33.711"><g transform="translate(2.5 2.39)"><path d="M428.915,333.018A44.955,44.955,0,0,1,417.1,338.2c-4.281,1.178-9.917,2.735-16.65.891-2.693-.748-7.892-2.161-11.138-7.181a12.481,12.481,0,0,1-2.336-8.083,11.945,11.945,0,0,1,4.12-7.673,14.389,14.389,0,0,1,6.153-3.063,24.362,24.362,0,0,1,8.356-.953,29.614,29.614,0,0,1,9.114,2.1,42.865,42.865,0,0,1,7.2,3.442,55.036,55.036,0,0,1,5.11,3.442c1.578,1.158,1.623,1.3,4.637,3.637,2.889,2.243,2.889,2.172,4.486,3.452.2.154.375.3.544.44" transform="translate(-386.928 -311.013)" fill="none" stroke="#fff" stroke-linecap="round" stroke-miterlimit="10" stroke-width="5"/><path d="M441.086,317.805a44.956,44.956,0,0,1,11.816-5.184c4.281-1.178,9.917-2.735,16.65-.891,2.693.748,7.892,2.161,11.138,7.181a12.481,12.481,0,0,1,2.336,8.083,11.945,11.945,0,0,1-4.12,7.673,14.389,14.389,0,0,1-6.153,3.063,24.362,24.362,0,0,1-8.356.953,29.614,29.614,0,0,1-9.114-2.1,42.866,42.866,0,0,1-7.2-3.442,55.04,55.04,0,0,1-5.11-3.442c-1.578-1.158-1.623-1.3-4.637-3.637-2.889-2.243-2.889-2.172-4.486-3.452-.2-.154-.375-.3-.544-.44" transform="translate(-391.669 -310.88)" fill="none" stroke="#fff" stroke-linecap="round" stroke-miterlimit="10" stroke-width="5"/></g></svg>