<svg
    class="fill-current"
    xmlns="http://www.w3.org/2000/svg"
    width="30"
    height="30"
    viewBox="0 0 30 30"
>
    <path
        id="Pfad_9"
        data-name="Pfad 9"
        d="M4.113,18.111a3.365,3.365,0,0,0-.352-3.27,7.449,7.449,0,0,1-1.533-4.529,7.5,7.5,0,1,1,7.5,7.5A7.61,7.61,0,0,1,7.957,17.6a1.851,1.851,0,0,0-1.439.246q-.288.185-.591.352a13.452,13.452,0,0,1-2.339,1.055c.131-.27.253-.533.37-.8.052-.111.1-.229.15-.346Zm-4.134-7.8a10.646,10.646,0,0,0,2.151,6.463c-.042.1-.089.205-.131.3A16.807,16.807,0,0,1,.284,20.127a1.684,1.684,0,0,0-.216,1.518A1.154,1.154,0,0,0,1.1,22.5a12.082,12.082,0,0,0,5.751-1.74c.225-.129.45-.264.666-.4a9.155,9.155,0,0,0,2.208.264,10.042,10.042,0,0,0,9.75-10.312A10.042,10.042,0,0,0,9.729,0,10.042,10.042,0,0,0-.021,10.313ZM20.228,28.125a9.487,9.487,0,0,0,2.208-.264c.216.135.441.27.666.4A12.082,12.082,0,0,0,28.853,30a1.146,1.146,0,0,0,1.031-.85,1.665,1.665,0,0,0-.216-1.518,17.387,17.387,0,0,1-1.716-3.053c-.042-.1-.089-.2-.131-.3a10.65,10.65,0,0,0,2.156-6.469,10.076,10.076,0,0,0-9.29-10.3,13.274,13.274,0,0,1,.291,2.8v.035a7.546,7.546,0,0,1,6.75,7.465A7.42,7.42,0,0,1,26.2,22.336a3.367,3.367,0,0,0-.352,3.27c.052.117.1.234.15.346.117.264.244.527.37.8a13.029,13.029,0,0,1-2.339-1.055q-.3-.167-.591-.352A1.851,1.851,0,0,0,22,25.1a7.473,7.473,0,0,1-8.184-3.439,10.821,10.821,0,0,1-2.344.691A9.726,9.726,0,0,0,20.228,28.125Z"
        transform="translate(0.022)"
    />
</svg>